<mxfile host="app.diagrams.net" agent="Mozilla/5.0 (Windows NT 10.0; Win64; x64) AppleWebKit/537.36 (KHTML, like Gecko) Chrome/131.0.0.0 Safari/537.36" version="24.8.6">
  <diagram name="Page-1" id="xbT5BskGB0u6IHnXZWMM">
    <mxGraphModel dx="1222" dy="698" grid="1" gridSize="10" guides="1" tooltips="1" connect="1" arrows="1" fold="1" page="1" pageScale="1" pageWidth="850" pageHeight="1100" math="0" shadow="0">
      <root>
        <mxCell id="0" />
        <mxCell id="1" parent="0" />
        <mxCell id="ZVTj0f0esIPfY4CdwXdH-2" value="" style="rounded=0;whiteSpace=wrap;html=1;" vertex="1" parent="1">
          <mxGeometry x="270" y="320" width="490" height="600" as="geometry" />
        </mxCell>
        <mxCell id="ZVTj0f0esIPfY4CdwXdH-3" value="Knowledge Graph Formation" style="text;html=1;align=center;verticalAlign=middle;whiteSpace=wrap;rounded=0;" vertex="1" parent="1">
          <mxGeometry x="460" y="330" width="95" height="60" as="geometry" />
        </mxCell>
        <mxCell id="ZVTj0f0esIPfY4CdwXdH-25" style="edgeStyle=orthogonalEdgeStyle;rounded=0;orthogonalLoop=1;jettySize=auto;html=1;" edge="1" parent="1" source="ZVTj0f0esIPfY4CdwXdH-11" target="ZVTj0f0esIPfY4CdwXdH-24">
          <mxGeometry relative="1" as="geometry" />
        </mxCell>
        <mxCell id="ZVTj0f0esIPfY4CdwXdH-31" style="edgeStyle=orthogonalEdgeStyle;rounded=0;orthogonalLoop=1;jettySize=auto;html=1;" edge="1" parent="1" source="ZVTj0f0esIPfY4CdwXdH-11" target="ZVTj0f0esIPfY4CdwXdH-28">
          <mxGeometry relative="1" as="geometry">
            <Array as="points">
              <mxPoint x="200" y="480" />
              <mxPoint x="200" y="835" />
            </Array>
          </mxGeometry>
        </mxCell>
        <mxCell id="ZVTj0f0esIPfY4CdwXdH-38" style="edgeStyle=orthogonalEdgeStyle;rounded=0;orthogonalLoop=1;jettySize=auto;html=1;exitX=1;exitY=1;exitDx=0;exitDy=0;exitPerimeter=0;entryX=0;entryY=0.5;entryDx=0;entryDy=0;" edge="1" parent="1" source="ZVTj0f0esIPfY4CdwXdH-11" target="ZVTj0f0esIPfY4CdwXdH-37">
          <mxGeometry relative="1" as="geometry" />
        </mxCell>
        <mxCell id="ZVTj0f0esIPfY4CdwXdH-11" value="System" style="shape=umlActor;verticalLabelPosition=bottom;verticalAlign=top;html=1;outlineConnect=0;" vertex="1" parent="1">
          <mxGeometry x="120" y="450" width="30" height="60" as="geometry" />
        </mxCell>
        <mxCell id="ZVTj0f0esIPfY4CdwXdH-30" style="edgeStyle=orthogonalEdgeStyle;rounded=0;orthogonalLoop=1;jettySize=auto;html=1;entryX=1;entryY=1;entryDx=0;entryDy=0;" edge="1" parent="1" source="ZVTj0f0esIPfY4CdwXdH-22" target="ZVTj0f0esIPfY4CdwXdH-28">
          <mxGeometry relative="1" as="geometry">
            <Array as="points">
              <mxPoint x="895" y="850" />
              <mxPoint x="524" y="850" />
            </Array>
          </mxGeometry>
        </mxCell>
        <mxCell id="ZVTj0f0esIPfY4CdwXdH-41" style="edgeStyle=orthogonalEdgeStyle;rounded=0;orthogonalLoop=1;jettySize=auto;html=1;exitX=0.5;exitY=0.5;exitDx=0;exitDy=0;exitPerimeter=0;" edge="1" parent="1" source="ZVTj0f0esIPfY4CdwXdH-22" target="ZVTj0f0esIPfY4CdwXdH-39">
          <mxGeometry relative="1" as="geometry" />
        </mxCell>
        <mxCell id="ZVTj0f0esIPfY4CdwXdH-22" value="User" style="shape=umlActor;verticalLabelPosition=bottom;verticalAlign=top;html=1;outlineConnect=0;" vertex="1" parent="1">
          <mxGeometry x="880" y="430" width="30" height="60" as="geometry" />
        </mxCell>
        <mxCell id="ZVTj0f0esIPfY4CdwXdH-29" style="edgeStyle=orthogonalEdgeStyle;rounded=0;orthogonalLoop=1;jettySize=auto;html=1;exitX=0;exitY=0.3333333333333333;exitDx=0;exitDy=0;exitPerimeter=0;entryX=1;entryY=0.5;entryDx=0;entryDy=0;" edge="1" parent="1" source="ZVTj0f0esIPfY4CdwXdH-23" target="ZVTj0f0esIPfY4CdwXdH-28">
          <mxGeometry relative="1" as="geometry" />
        </mxCell>
        <mxCell id="ZVTj0f0esIPfY4CdwXdH-33" style="edgeStyle=orthogonalEdgeStyle;rounded=0;orthogonalLoop=1;jettySize=auto;html=1;exitX=0.5;exitY=0.5;exitDx=0;exitDy=0;exitPerimeter=0;entryX=1;entryY=1;entryDx=0;entryDy=0;" edge="1" parent="1" source="ZVTj0f0esIPfY4CdwXdH-23" target="ZVTj0f0esIPfY4CdwXdH-32">
          <mxGeometry relative="1" as="geometry" />
        </mxCell>
        <mxCell id="ZVTj0f0esIPfY4CdwXdH-43" style="edgeStyle=orthogonalEdgeStyle;rounded=0;orthogonalLoop=1;jettySize=auto;html=1;exitX=0.25;exitY=0.1;exitDx=0;exitDy=0;exitPerimeter=0;" edge="1" parent="1" source="ZVTj0f0esIPfY4CdwXdH-23" target="ZVTj0f0esIPfY4CdwXdH-32">
          <mxGeometry relative="1" as="geometry" />
        </mxCell>
        <mxCell id="ZVTj0f0esIPfY4CdwXdH-23" value="APT admin" style="shape=umlActor;verticalLabelPosition=bottom;verticalAlign=top;html=1;outlineConnect=0;" vertex="1" parent="1">
          <mxGeometry x="880" y="730" width="30" height="60" as="geometry" />
        </mxCell>
        <mxCell id="ZVTj0f0esIPfY4CdwXdH-27" value="" style="edgeStyle=orthogonalEdgeStyle;rounded=0;orthogonalLoop=1;jettySize=auto;html=1;" edge="1" parent="1" source="ZVTj0f0esIPfY4CdwXdH-24" target="ZVTj0f0esIPfY4CdwXdH-26">
          <mxGeometry relative="1" as="geometry" />
        </mxCell>
        <mxCell id="ZVTj0f0esIPfY4CdwXdH-24" value="Data Crawling&amp;nbsp;" style="ellipse;whiteSpace=wrap;html=1;fillColor=#d5e8d4;strokeColor=#82b366;" vertex="1" parent="1">
          <mxGeometry x="365" y="450" width="120" height="80" as="geometry" />
        </mxCell>
        <mxCell id="ZVTj0f0esIPfY4CdwXdH-26" value="Data Storage&amp;nbsp;" style="ellipse;whiteSpace=wrap;html=1;fillColor=#d5e8d4;strokeColor=#82b366;" vertex="1" parent="1">
          <mxGeometry x="365" y="550" width="120" height="80" as="geometry" />
        </mxCell>
        <mxCell id="ZVTj0f0esIPfY4CdwXdH-28" value="Login/Signup" style="ellipse;whiteSpace=wrap;html=1;fillColor=#dae8fc;strokeColor=#6c8ebf;" vertex="1" parent="1">
          <mxGeometry x="430" y="810" width="110" height="50" as="geometry" />
        </mxCell>
        <mxCell id="ZVTj0f0esIPfY4CdwXdH-36" style="edgeStyle=orthogonalEdgeStyle;rounded=0;orthogonalLoop=1;jettySize=auto;html=1;exitX=1;exitY=0;exitDx=0;exitDy=0;entryX=0.5;entryY=1;entryDx=0;entryDy=0;" edge="1" parent="1" source="ZVTj0f0esIPfY4CdwXdH-32" target="ZVTj0f0esIPfY4CdwXdH-34">
          <mxGeometry relative="1" as="geometry" />
        </mxCell>
        <mxCell id="ZVTj0f0esIPfY4CdwXdH-32" value="Extract DB Data" style="ellipse;whiteSpace=wrap;html=1;fillColor=#d5e8d4;strokeColor=#82b366;" vertex="1" parent="1">
          <mxGeometry x="460" y="690" width="120" height="80" as="geometry" />
        </mxCell>
        <mxCell id="ZVTj0f0esIPfY4CdwXdH-34" value="Data Visualizer" style="ellipse;whiteSpace=wrap;html=1;" vertex="1" parent="1">
          <mxGeometry x="520" y="570" width="120" height="80" as="geometry" />
        </mxCell>
        <mxCell id="ZVTj0f0esIPfY4CdwXdH-37" value="TextMinning" style="ellipse;whiteSpace=wrap;html=1;fillColor=#ffe6cc;strokeColor=#d79b00;" vertex="1" parent="1">
          <mxGeometry x="320" y="670" width="120" height="80" as="geometry" />
        </mxCell>
        <mxCell id="ZVTj0f0esIPfY4CdwXdH-39" value="Display Data/Visualizations" style="ellipse;whiteSpace=wrap;html=1;fillColor=#dae8fc;strokeColor=#6c8ebf;" vertex="1" parent="1">
          <mxGeometry x="580" y="470" width="120" height="80" as="geometry" />
        </mxCell>
        <mxCell id="ZVTj0f0esIPfY4CdwXdH-40" style="edgeStyle=orthogonalEdgeStyle;rounded=0;orthogonalLoop=1;jettySize=auto;html=1;exitX=0.5;exitY=0;exitDx=0;exitDy=0;entryX=0.333;entryY=1;entryDx=0;entryDy=0;entryPerimeter=0;" edge="1" parent="1" source="ZVTj0f0esIPfY4CdwXdH-34" target="ZVTj0f0esIPfY4CdwXdH-39">
          <mxGeometry relative="1" as="geometry" />
        </mxCell>
      </root>
    </mxGraphModel>
  </diagram>
</mxfile>
